<svg width="744" height="798" viewBox="0 0 744 798" fill="none" xmlns="http://www.w3.org/2000/svg">
<path d="M75.0332 601.25L79.0083 605.227C79.3826 605.602 79.9894 605.602 80.3637 605.227L84.3388 601.25C84.7131 600.876 84.7131 600.269 84.3388 599.894L80.3637 595.917C79.9894 595.542 79.3826 595.543 79.0083 595.917L75.0332 599.894C74.6589 600.269 74.6589 600.876 75.0332 601.25Z" fill="#2A4DFA"/>
<path d="M346.108 601.248L350.083 605.226C350.458 605.6 351.065 605.6 351.439 605.226L355.414 601.249C355.788 600.874 355.788 600.267 355.414 599.892L351.439 595.915C351.065 595.541 350.458 595.541 350.083 595.915L346.108 599.892C345.734 600.267 345.734 600.874 346.108 601.248Z" fill="#00B1FA"/>
<path d="M391.011 601.25L394.986 605.228C395.36 605.602 395.967 605.602 396.341 605.228L400.316 601.25C400.691 600.876 400.691 600.269 400.316 599.894L396.341 595.917C395.967 595.543 395.36 595.543 394.986 595.917L391.011 599.894C390.637 600.269 390.636 600.876 391.011 601.25Z" fill="#2A4DFA"/>
<path d="M435.911 601.25L439.886 605.227C440.261 605.601 440.867 605.601 441.242 605.227L445.217 601.25C445.591 600.875 445.591 600.268 445.217 599.893L441.242 595.916C440.867 595.542 440.261 595.542 439.886 595.916L435.911 599.893C435.537 600.268 435.537 600.875 435.911 601.25Z" fill="#2A4DFA"/>
<path d="M205.663 601.25L209.638 605.227C210.012 605.601 210.619 605.601 210.993 605.227L214.968 601.25C215.342 600.875 215.342 600.268 214.968 599.893L210.993 595.916C210.619 595.542 210.012 595.542 209.638 595.916L205.663 599.893C205.288 600.268 205.288 600.875 205.663 601.25Z" fill="#2A4DFA"/>
<path d="M162.799 601.25L166.774 605.227C167.148 605.601 167.755 605.601 168.129 605.227L172.104 601.25C172.479 600.875 172.479 600.268 172.104 599.893L168.129 595.916C167.755 595.542 167.148 595.542 166.774 595.916L162.799 599.893C162.425 600.268 162.425 600.875 162.799 601.25Z" fill="#2A4DFA"/>
<path d="M480.813 601.249L484.789 605.226C485.163 605.6 485.77 605.6 486.144 605.226L490.119 601.249C490.493 600.874 490.493 600.267 490.119 599.893L486.144 595.916C485.77 595.541 485.163 595.541 484.789 595.916L480.814 599.893C480.439 600.267 480.439 600.874 480.813 601.249Z" fill="#2A4DFA"/>
<path d="M250.565 601.249L254.54 605.226C254.914 605.6 255.521 605.6 255.896 605.226L259.871 601.249C260.245 600.874 260.245 600.267 259.871 599.893L255.896 595.916C255.521 595.541 254.914 595.541 254.54 595.916L250.565 599.893C250.191 600.267 250.191 600.874 250.565 601.249Z" fill="#2A4DFA"/>
<path d="M525.716 601.251L529.691 605.228C530.066 605.602 530.673 605.602 531.047 605.228L535.022 601.251C535.396 600.876 535.396 600.269 535.022 599.895L531.047 595.917C530.673 595.543 530.066 595.543 529.691 595.918L525.716 599.895C525.342 600.269 525.342 600.876 525.716 601.251Z" fill="#2A4DFA"/>
<path d="M295.468 601.251L299.443 605.228C299.817 605.602 300.424 605.602 300.798 605.228L304.773 601.251C305.148 600.876 305.148 600.269 304.773 599.895L300.798 595.917C300.424 595.543 299.817 595.543 299.443 595.918L295.468 599.895C295.093 600.269 295.093 600.876 295.468 601.251Z" fill="#2A4DFA"/>
<path d="M570.621 601.248L574.596 605.225C574.97 605.6 575.577 605.6 575.951 605.225L579.926 601.248C580.3 600.874 580.3 600.266 579.926 599.892L575.951 595.915C575.577 595.54 574.97 595.54 574.596 595.915L570.621 599.892C570.246 600.267 570.246 600.874 570.621 601.248Z" fill="#00B1FA"/>
<path d="M615.52 601.25L619.496 605.227C619.87 605.602 620.477 605.602 620.851 605.227L624.826 601.25C625.2 600.875 625.2 600.268 624.826 599.894L620.851 595.917C620.477 595.542 619.87 595.542 619.496 595.917L615.521 599.894C615.146 600.268 615.146 600.875 615.52 601.25Z" fill="#2A4DFA"/>
<path d="M129.372 599.897L125.397 595.92C125.023 595.546 124.416 595.546 124.041 595.92L120.066 599.897C119.692 600.272 119.692 600.879 120.066 601.253L124.042 605.231C124.416 605.605 125.023 605.605 125.397 605.231L129.372 601.253C129.746 600.879 129.746 600.272 129.372 599.897Z" fill="#2A4DFA"/>
<path d="M660.423 601.249L664.398 605.226C664.773 605.601 665.38 605.601 665.754 605.226L669.729 601.249C670.103 600.875 670.103 600.268 669.729 599.893L665.754 595.916C665.38 595.541 664.773 595.542 664.398 595.916L660.423 599.893C660.049 600.268 660.049 600.875 660.423 601.249Z" fill="#2A4DFA"/>
<path d="M701.614 587.205L707.199 587.847C707.725 587.908 708.2 587.53 708.261 587.004L708.903 581.416C708.964 580.89 708.586 580.415 708.061 580.354L702.476 579.712C701.95 579.651 701.474 580.029 701.414 580.555L700.772 586.142C700.711 586.669 701.089 587.144 701.614 587.205Z" fill="#2A4DFA"/>
<path d="M43.2781 613.942L37.6933 613.3C37.1674 613.239 36.6922 613.617 36.6317 614.143L35.9895 619.731C35.929 620.257 36.3062 620.732 36.8321 620.793L42.4169 621.435C42.9428 621.496 43.4181 621.118 43.4786 620.592L44.1208 615.005C44.1813 614.478 43.804 614.003 43.2781 613.942Z" fill="#2A4DFA"/>
<path d="M726.082 546.019L727.181 551.535C727.284 552.055 727.789 552.392 728.308 552.288L733.821 551.189C734.341 551.086 734.677 550.581 734.574 550.061L733.475 544.545C733.372 544.026 732.867 543.689 732.348 543.792L726.835 544.891C726.316 544.995 725.979 545.5 726.082 546.019Z" fill="#2A4DFA"/>
<path d="M18.8099 655.128L17.7112 649.612C17.6078 649.093 17.1031 648.756 16.5839 648.859L11.0707 649.958C10.5516 650.062 10.2147 650.567 10.3181 651.086L11.4168 656.602C11.5202 657.122 12.0248 657.459 12.5439 657.355L18.0572 656.256C18.5763 656.153 18.9133 655.648 18.8099 655.128Z" fill="#2A4DFA"/>
<path d="M734.016 96.2542L737.991 100.231C738.365 100.606 738.972 100.606 739.346 100.231L743.321 96.2542C743.696 95.8797 743.696 95.2726 743.321 94.8981L739.346 90.921C738.972 90.5465 738.365 90.5465 737.991 90.921L734.016 94.8981C733.641 95.2726 733.641 95.8797 734.016 96.2542Z" fill="#0FB0F4"/>
<path d="M734.014 141.18L737.989 145.157C738.364 145.532 738.97 145.532 739.345 145.157L743.32 141.18C743.694 140.806 743.694 140.198 743.32 139.824L739.345 135.847C738.97 135.472 738.364 135.472 737.989 135.847L734.014 139.824C733.64 140.198 733.64 140.805 734.014 141.18Z" fill="#2A4DFA"/>
<path d="M734.015 186.105L737.99 190.083C738.365 190.457 738.971 190.457 739.346 190.083L743.321 186.105C743.695 185.731 743.695 185.124 743.321 184.749L739.346 180.772C738.971 180.398 738.365 180.398 737.99 180.772L734.015 184.749C733.641 185.124 733.641 185.731 734.015 186.105Z" fill="#2A4DFA"/>
<path d="M734.013 231.029L737.988 235.006C738.362 235.38 738.969 235.38 739.343 235.006L743.318 231.029C743.693 230.654 743.693 230.047 743.318 229.672L739.343 225.695C738.969 225.321 738.362 225.321 737.988 225.695L734.013 229.672C733.638 230.047 733.638 230.654 734.013 231.029Z" fill="#2A4DFA"/>
<path d="M734.014 275.954L737.989 279.931C738.363 280.306 738.97 280.306 739.344 279.931L743.319 275.954C743.694 275.58 743.694 274.972 743.319 274.598L739.344 270.621C738.97 270.246 738.363 270.246 737.989 270.621L734.014 274.598C733.639 274.972 733.639 275.579 734.014 275.954Z" fill="#00B1FA"/>
<path d="M734.012 320.879L737.987 324.857C738.362 325.231 738.968 325.231 739.343 324.857L743.318 320.88C743.692 320.505 743.692 319.898 743.318 319.523L739.343 315.546C738.968 315.172 738.362 315.172 737.987 315.546L734.012 319.523C733.638 319.898 733.638 320.505 734.012 320.879Z" fill="#2A4DFA"/>
<path d="M734.014 365.807L737.989 369.784C738.364 370.158 738.97 370.159 739.345 369.784L743.32 365.807C743.694 365.432 743.694 364.825 743.32 364.451L739.345 360.474C738.97 360.099 738.363 360.099 737.989 360.474L734.014 364.451C733.64 364.825 733.64 365.432 734.014 365.807Z" fill="#2A4DFA"/>
<path d="M734.015 410.73L737.99 414.707C738.365 415.082 738.971 415.082 739.346 414.707L743.321 410.73C743.695 410.356 743.695 409.748 743.321 409.374L739.346 405.397C738.971 405.022 738.364 405.022 737.99 405.397L734.015 409.374C733.641 409.748 733.641 410.356 734.015 410.73Z" fill="#2A4DFA"/>
<path d="M734.015 455.655L737.99 459.632C738.365 460.007 738.971 460.007 739.346 459.632L743.321 455.655C743.695 455.28 743.695 454.673 743.321 454.299L739.346 450.322C738.971 449.947 738.364 449.947 737.99 450.322L734.015 454.299C733.641 454.673 733.641 455.28 734.015 455.655Z" fill="#2A4DFA"/>
<path d="M734.014 500.58L737.989 504.557C738.364 504.932 738.97 504.932 739.345 504.558L743.32 500.58C743.694 500.206 743.694 499.599 743.32 499.224L739.345 495.247C738.97 494.873 738.363 494.873 737.989 495.247L734.014 499.224C733.64 499.599 733.64 500.206 734.014 500.58Z" fill="#00B1FA"/>
<path d="M10.8784 700.567L6.90333 696.59C6.52904 696.215 5.92223 696.215 5.54793 696.59L1.57282 700.567C1.19853 700.941 1.19853 701.549 1.57282 701.923L5.54793 705.9C5.92223 706.275 6.52913 706.275 6.90342 705.9L10.8785 701.923C11.2528 701.549 11.2527 700.941 10.8784 700.567Z" fill="#00B1FA"/>
<path d="M10.8784 745.843L6.90333 741.866C6.52904 741.492 5.92223 741.492 5.54793 741.866L1.57282 745.843C1.19853 746.218 1.19853 746.825 1.57282 747.199L5.54793 751.176C5.92223 751.551 6.52913 751.551 6.90342 751.176L10.8785 747.199C11.2528 746.825 11.2527 746.218 10.8784 745.843Z" fill="#2A4DFA"/>
<path d="M10.8784 791.12L6.90333 787.143C6.52904 786.768 5.92223 786.768 5.54793 787.143L1.57282 791.12C1.19853 791.494 1.19853 792.101 1.57282 792.476L5.54793 796.453C5.92223 796.827 6.52913 796.827 6.90342 796.453L10.8785 792.476C11.2528 792.101 11.2527 791.494 10.8784 791.12Z" fill="#2A4DFA"/>
</svg>
